/vscmnt/brussel_pixiu_data/_data_brussel/112/vsc11236/PredSimResults/SUBJ06mtu3D/weighted-expIG/worker_05.mot
version=1
nRows=11
nColumns=50
inDegrees=yes
endheader
                time	         pelvis_tilt	         pelvis_list	     pelvis_rotation	           pelvis_tx	           pelvis_ty	           pelvis_tz	       hip_flexion_r	     hip_adduction_r	      hip_rotation_r	        knee_angle_r	       ankle_angle_r	         mtp_angle_r	       hip_flexion_l	     hip_adduction_l	      hip_rotation_l	        knee_angle_l	       ankle_angle_l	         mtp_angle_l	    lumbar_extension	      lumbar_bending	     lumbar_rotation	 ercspn_r/activation	 intobl_r/activation	 extobl_r/activation	    abd_r/activation	    add_r/activation	hamstrings_r/activation	bifemsh_r/activation	glut_max_r/activation	iliopsoas_r/activation	rect_fem_r/activation	  vasti_r/activation	gastroc_r/activation	 soleus_r/activation	tib_ant_r/activation	 ercspn_l/activation	 intobl_l/activation	 extobl_l/activation	    abd_l/activation	    add_l/activation	hamstrings_l/activation	bifemsh_l/activation	glut_max_l/activation	iliopsoas_l/activation	rect_fem_l/activation	  vasti_l/activation	gastroc_l/activation	 soleus_l/activation	tib_ant_l/activation	
          1.38561667	         -7.49305777	         -5.07494476	         11.03606070	          1.37176051	          0.93220708	         -0.02111838	         28.56578415	          0.50553671	         -6.17372506	          1.02080264	          5.91160426	          0.21074049	         -8.11323063	         -4.92588426	         10.13562011	         -8.13166134	         10.40049486	         29.55905837	         -1.44858149	          2.75098591	         -2.46163582	          0.09260919	          0.17766086	          0.02295840	          0.01088120	          0.10547191	          0.04848138	          0.17493463	          0.00999999	          0.07936689	          0.00999999	          0.00999999	          0.01008753	          0.00999999	          0.27875547	          0.05716005	          0.00999999	          0.00999999	          0.06992866	          0.00999999	          0.01565688	          0.13279612	          0.07942410	          0.40213528	          0.00999999	          0.00999999	          0.34784440	          0.34979774	          0.01348798	
          1.39947284	         -7.62393078	         -4.98355249	         11.05677219	          1.38865887	          0.92993384	         -0.02030539	         28.63921112	          0.67143298	         -5.79035026	         -0.45794742	          5.42294548	          0.21031264	         -8.52059005	         -4.92171085	          9.61117113	         -9.07878900	          9.83630544	         31.33867594	         -1.12381790	          3.04431098	         -2.63219389	          0.07523476	          0.14511532	          0.01865117	          0.00999999	          0.15082184	          0.04750158	          0.14211512	          0.04134115	          0.06447686	          0.00999999	          0.00999999	          0.02295840	          0.01761869	          0.28995885	          0.08687399	          0.00999999	          0.00999999	          0.05680933	          0.03921799	          0.01271949	          0.10788222	          0.06452333	          0.40242533	          0.00999999	          0.00999999	          0.32471851	          0.33306556	          0.01095750	
          1.41332901	         -7.73194753	         -4.87800255	         11.01112994	          1.40605861	          0.92791241	         -0.01940994	         28.50603660	          0.82084846	         -5.39289134	         -1.83703406	          4.90075078	          0.19634251	         -8.84221641	         -4.88506611	          9.05153430	        -10.28113369	          9.11390580	         33.17785180	         -0.77553838	          3.33850944	         -2.78389818	          0.06711360	          0.11789022	          0.01515202	          0.04320389	          0.12252613	          0.05330818	          0.12021414	          0.07178007	          0.05238034	          0.00999999	          0.00999999	          0.01865117	          0.01431324	          0.34203434	          0.09091266	          0.00999999	          0.00999999	          0.04615132	          0.03880352	          0.01089288	          0.08764242	          0.05241810	          0.37983827	          0.00999999	          0.00999999	          0.29732891	          0.30828815	          0.00999999	
          1.42718517	         -7.81970351	         -4.75655900	         10.90034562	          1.42369778	          0.92638478	         -0.01840174	         28.17262119	          0.98447589	         -5.06200776	         -2.88740026	          4.23687431	          0.17187729	         -8.98797797	         -4.80578898	          8.47007547	        -11.84716864	          8.16853339	         35.07608116	         -0.43035402	          3.62744260	         -2.90825511	          0.07663837	          0.09577281	          0.01230935	          0.08810782	          0.11913656	          0.05692435	          0.09766075	          0.10231608	          0.04255326	          0.00999999	          0.00999999	          0.01515202	          0.01162793	          0.37765191	          0.11383759	          0.00999999	          0.00999999	          0.03749287	          0.04066531	          0.02091767	          0.07119981	          0.04258393	          0.36915596	          0.01000000	          0.01515202	          0.25316725	          0.27985671	          0.00999999	
          1.44104134	         -7.88726998	         -4.62068737	         10.72886348	          1.44133556	          0.92553591	         -0.01730766	         27.71713387	          1.16069882	         -4.79306953	         -3.79245470	          3.73066060	          0.14427234	         -8.89306084	         -4.67802572	          7.85931760	        -13.84782614	          6.96267746	         36.96581624	         -0.10819169	          3.91636938	         -2.99885899	          0.07261102	          0.07780486	          0.00999999	          0.12260878	          0.12909777	          0.05695750	          0.07933860	          0.12169342	          0.03456984	          0.00999999	          0.00999999	          0.01230935	          0.00999999	          0.39996601	          0.13648721	          0.00999999	          0.00999999	          0.03045882	          0.05896485	          0.02830226	          0.05784201	          0.03459476	          0.35031640	          0.00999999	          0.01230935	          0.20567050	          0.22844637	          0.00999999	
          1.45489751	         -7.93456161	         -4.47476518	         10.49927070	          1.45874278	          0.92545575	         -0.01616130	         27.18695624	          1.34345125	         -4.57525958	         -4.61537970	          3.42090421	          0.12213950	         -8.49366484	         -4.50073807	          7.20761818	        -16.36629684	          5.52924457	         38.65658546	          0.17226883	          4.21417928	         -3.05044696	          0.06408689	          0.06320788	          0.00999999	          0.14076060	          0.10499513	          0.05944465	          0.06445387	          0.12520231	          0.02808418	          0.00999999	          0.06846757	          0.00999999	          0.00999999	          0.40629990	          0.14882225	          0.00999999	          0.00999999	          0.02474444	          0.08373280	          0.04128911	          0.04699026	          0.02810443	          0.31629930	          0.00999999	          0.00999999	          0.16708463	          0.18558751	          0.00999999	
          1.46875367	         -7.96305971	         -4.31440573	         10.21552159	          1.47572177	          0.92619108	         -0.01500938	         26.57314596	          1.52262506	         -4.37561724	         -5.30656379	          3.28510316	          0.10206991	         -7.75371688	         -4.27156150	          6.49649508	        -19.43081901	          3.93571837	         39.80860575	          0.39330047	          4.52033161	         -3.06078877	          0.05667011	          0.05134944	          0.00999999	          0.14610683	          0.08529698	          0.05905406	          0.05236167	          0.12025043	          0.02281530	          0.00999999	          0.12042100	          0.00999999	          0.00999999	          0.39934077	          0.15873556	          0.00999999	          0.00999999	          0.02010213	          0.10678981	          0.04254264	          0.04989540	          0.02283175	          0.27170213	          0.00999999	          0.00999999	          0.13573785	          0.15076941	          0.00999999	
          1.48260984	         -7.97345381	         -4.12597297	          9.88186686	          1.49219733	          0.92770318	         -0.01388174	         25.84660857	          1.68379311	         -4.15866345	         -5.80741398	          3.31181392	          0.08942476	         -6.68423459	         -3.99298839	          5.71182196	        -23.01022584	          2.32379243	         39.94055234	          0.54766346	          4.81935381	         -3.03067031	          0.04603823	          0.04171576	          0.00999999	          0.14019764	          0.06929440	          0.05612161	          0.04253809	          0.10974914	          0.01853492	          0.00999999	          0.14321960	          0.00999999	          0.00999999	          0.38140489	          0.16638400	          0.00999999	          0.00999999	          0.01633077	          0.11836941	          0.03456121	          0.04836693	          0.01854828	          0.22072805	          0.00999999	          0.00999999	          0.11027205	          0.12248354	          0.00999999	
          1.49646601	         -7.96545903	         -3.89328445	          9.50122308	          1.50819760	          0.92986913	         -0.01278516	         24.99061413	          1.80949728	         -3.90222094	         -6.08825069	          3.44992274	          0.08532293	         -5.33849255	         -3.67231304	          4.87064727	        -26.97570328	          0.60114246	         39.07121432	          0.63755612	          5.08837309	         -2.96252374	          0.03740099	          0.03388946	          0.00999999	          0.12965428	          0.05629406	          0.05400880	          0.03455751	          0.10078996	          0.01505758	          0.00999999	          0.14384626	          0.00999999	          0.00999999	          0.36066851	          0.17019655	          0.00999999	          0.00999999	          0.01326695	          0.12781599	          0.02807718	          0.06138381	          0.01506844	          0.17931723	          0.00999999	          0.00999999	          0.08958390	          0.09950438	          0.00999999	
          1.51032217	         -7.93874936	         -3.60048539	          9.07480247	          1.52378146	          0.93251562	         -0.01171866	         24.01013125	          1.87990819	         -3.59763639	         -6.15938061	          3.64338374	          0.08869747	         -3.78891168	         -3.31105805	          4.00559225	        -31.13652318	         -1.40028226	         37.42377516	          0.66835027	          5.30430314	         -2.85809512	          0.03038418	          0.02753146	          0.00999999	          0.12030038	          0.04573273	          0.05160394	          0.02807417	          0.09300927	          0.01223263	          0.00999999	          0.13041750	          0.00999999	          0.00999999	          0.33846591	          0.17139788	          0.00999999	          0.00999999	          0.01077793	          0.13740914	          0.02280961	          0.07178894	          0.01224145	          0.14567550	          0.00999999	          0.00999999	          0.07277705	          0.08083635	          0.01018799	
          1.52417834	         -7.89295820	         -3.23636301	          8.60322073	          1.53899141	          0.93545749	         -0.01068168	         22.93136726	          1.87809140	         -3.23285509	         -6.06990161	          3.86626660	          0.09672905	         -2.10162525	         -2.90426050	          3.15105259	        -35.35272207	         -3.55137365	         34.83782223	          0.64401856	          5.45023055	         -2.71950900	          0.02468380	          0.02236627	          0.00999999	          0.11901405	          0.03715280	          0.04506970	          0.02280717	          0.07555979	          0.00999999	          0.00999999	          0.10594986	          0.00999999	          0.00999999	          0.31649796	          0.17436536	          0.00999999	          0.03612557	          0.00999999	          0.13934199	          0.01853030	          0.05832060	          0.00999999	          0.11834529	          0.00999999	          0.00999999	          0.05912334	          0.06567063	          0.05905547	
